<?xml version="1.0" encoding="UTF-8"?>
<svg id="Layer_1" width="641" height="51" data-name="Layer 1" xmlns="http://www.w3.org/2000/svg" xmlns:xlink="http://www.w3.org/1999/xlink" viewBox="0 0 641 51">
  <defs>
    <style>
      .cls-1 {
        fill: #fff;
      }

      .cls-2 {
        fill: url(#linear-gradient);
      }
    </style>
    <linearGradient id="linear-gradient" x1="182.24" y1="184.29" x2="13.25" y2="15.3" gradientTransform="translate(0 188.27) scale(1 -1)" gradientUnits="userSpaceOnUse">
      <stop offset="0" stop-color="#fdbb2d"/>
      <stop offset="1" stop-color="#b21f1f"/>
    </linearGradient>
  </defs>
  <path class="cls-2" d="m150.25,35.92h0C135.05,4.43,97.16-8.87,65.67,6.23c-13,6.2-23.49,16.7-29.69,29.69h0C4.39,51.11-8.91,89,6.29,120.59c6.2,13,16.7,23.39,29.69,29.69,15.2,31.59,52.99,44.89,84.58,29.69,13-6.2,23.49-16.7,29.69-29.69,31.59-15.2,44.89-53.09,29.69-84.68-6.3-13-16.7-23.39-29.69-29.69Zm-2,27.49c0,7.3-1.5,14.6-4.3,21.39-6.1-8.2-14.2-14.8-23.39-19.19-4.4-9.2-11-17.2-19.19-23.29,13.6-5.7,28.99-5.7,42.69,0,2.7,6.6,4.2,13.8,4.2,21.09h0Zm0,59.38c0,7.3-1.4,14.5-4.3,21.19-13.6,5.7-28.99,5.7-42.59,0,8.2-6.1,14.8-14.1,19.19-23.29h0c9.2-4.4,17.2-11,23.29-19.19,2.9,6.7,4.3,13.9,4.4,21.29h0Zm-110.37,0c0-7.3,1.5-14.6,4.3-21.39,6.1,8.2,14.2,14.8,23.39,19.19,4.4,9.2,11,17.2,19.19,23.29-13.6,5.7-28.99,5.7-42.59,0-2.8-6.7-4.3-13.9-4.3-21.09h0Zm0-59.38c0-7.3,1.4-14.5,4.3-21.19,6.7-2.8,13.9-4.3,21.19-4.3s14.6,1.5,21.39,4.3c-8.2,6.1-14.8,14.1-19.19,23.29h0c-9.2,4.4-17.2,11-23.29,19.19-2.9-6.7-4.4-14-4.4-21.29h0Zm88.88,25.59h-33.69v8.2h25.39c-.4,5.9-1.8,11.6-4.1,17.1-13.6,5.7-28.89,5.7-42.49,0-5.7-13.6-5.7-28.89,0-42.49,13.6-5.7,28.89-5.7,42.49,0,3.8,1.6,7.4,3.6,10.7,6,5.8,4.1,10.7,9.3,14.5,15.3-3.8,6-8.8,11.2-14.5,15.3,1.3-5,1.9-10.1,1.9-15.3,0-1.4-.2-2.8-.2-4.1h0Zm-65.68,19.29c-5.8-4.1-10.7-9.3-14.5-15.3,3.8-6,8.7-11.2,14.5-15.3-2.4,10.1-2.4,20.59,0,30.59h0Zm31.99-48.99c-5.2,0-10.3.7-15.3,1.9,4.1-5.8,9.3-10.7,15.2-14.5,6,3.8,11.2,8.7,15.3,14.5-4.9-1.3-10-1.9-15.2-1.9h0Zm-15.3,65.68c10,2.5,20.49,2.5,30.59,0-4.1,5.8-9.3,10.7-15.3,14.5-6-3.8-11.2-8.7-15.3-14.5h0Zm15.3-116.77c17.9,0,34.59,8.6,44.89,23.19-15.2-3.8-31.19-1.8-44.89,5.5-13.8-7.3-29.79-9.3-44.89-5.6,10.3-14.4,26.99-23.09,44.89-23.09h0ZM8.29,93c0-17.9,8.7-34.59,23.19-44.89-3.8,15.2-1.8,31.19,5.5,44.89-4.9,9.1-7.4,19.29-7.4,29.69,0,5.2.6,10.3,1.9,15.3-14.6-10.3-23.19-27.09-23.19-44.99Zm84.78,84.88c-17.9,0-34.59-8.6-44.89-23.19,15.2,3.7,31.19,1.8,44.89-5.5,9.1,4.9,19.29,7.4,29.69,7.4,5.2,0,10.3-.6,15.3-1.9-10.4,14.5-27.09,23.19-44.99,23.19Zm61.58-39.89c1.2-5,1.9-10.1,1.8-15.3,0-10.3-2.5-20.49-7.4-29.69,4.9-9.1,7.4-19.29,7.4-29.69,0-5.2-.6-10.3-1.8-15.3,24.79,17.6,30.69,51.99,13.1,76.78-3.6,5.2-8,9.6-13.1,13.2h0Z"/>
  <g>
    <g>
      <path class="cls-1" d="m276.65,71.63h27.74c-.55,5.13-2.2,10.07-4.94,14.37-3.85,5.86-13.09,12.82-26.37,12.82-19.32,0-33.97-14.74-33.97-34.33s15.11-34.88,34.33-34.88c7.97.09,15.66,2.84,21.7,7.97,2.84,2.38,5.31,5.22,7.32,8.42l.73,1.19,6.13-4.85-.64-.92c-2.66-3.85-5.95-7.32-9.7-10.16-7.14-5.77-16.11-8.88-25.36-8.7-24.08,0-42.3,17.94-42.3,41.75s18.04,41.66,41.93,41.66c12.73,0,23.62-4.85,30.58-13.64,7.23-9.16,8.24-20.6,8.24-26.55v-1.19h-35.43v7.05h0Z"/>
      <path class="cls-1" d="m347.7,104.68h8.24l10.62-25.82h31.86l10.53,25.82h8.24l-34.42-85.42-35.07,85.42Zm21.7-32.96l13.18-32.78,13,32.78h-26.18Z"/>
      <path class="cls-1" d="m505.45,74.01c0,7.87-.46,12.09-3.11,16.39-4.85,7.87-14.47,8.51-17.3,8.51s-12.36-.64-17.3-8.51c-2.66-4.3-3.11-8.51-3.11-16.39V23.65h-7.6v50.36c0,8.15.37,14.47,4.67,20.87,6.32,9.25,16.11,11.17,23.25,11.17s17.03-1.92,23.35-11.17c4.39-6.41,4.67-12.73,4.67-20.87V23.56h-7.6l.09,50.45Z"/>
      <path class="cls-1" d="m599.66,65.59c-3.39-2.38-6.59-3.94-11.9-6.41l-4.12-2.01c-7.78-3.85-12.91-6.41-12.91-14.1,0-6.5,4.21-13.46,13.46-13.46,3.66,0,10.35,1.19,14.37,8.97l.73,1.37,5.68-4.76-.46-.82c-4.03-7.51-11.44-11.81-20.14-11.81-14.01,0-21.33,10.44-21.33,20.78,0,3.39.92,6.68,2.66,9.61,2.93,4.85,7.42,7.23,14.92,10.8,6.5,3.2,11.08,5.58,13.18,6.78,4.76,2.93,7.05,6.59,7.05,11.35,0,9.7-7.6,16.94-17.76,16.94-5.49,0-10.71-2.38-13.82-6.32-1.74-2.2-3.11-4.58-4.03-7.14l-.46-1.28-6.68,3.11.37,1.01c1.19,3.3,2.93,6.41,5.31,8.97,3.2,3.75,8.7,8.7,19.23,8.7,14.47,0,25.73-10.62,25.73-24.17-.18-8.97-5.22-13.46-9.06-16.11Z"/>
      <path class="cls-1" d="m690.94,65.59c-3.39-2.38-6.59-3.94-11.9-6.41l-4.12-2.01c-7.78-3.85-12.91-6.41-12.91-14.1,0-6.5,4.21-13.46,13.46-13.46,3.66,0,10.35,1.19,14.37,8.97l.73,1.37,5.68-4.76-.46-.82c-4.03-7.51-11.44-11.81-20.14-11.81-14.01,0-21.33,10.44-21.33,20.78,0,3.39.92,6.68,2.66,9.61,2.93,4.85,7.32,7.23,14.92,10.8,6.5,3.2,11.08,5.58,13.18,6.78,4.76,2.93,7.05,6.59,7.05,11.35,0,9.7-7.6,16.94-17.76,16.94-5.49,0-10.71-2.38-13.82-6.32-1.74-2.2-3.11-4.58-4.03-7.14l-.46-1.28-6.68,3.11.37,1.01c1.19,3.3,2.93,6.41,5.31,8.97,3.2,3.75,8.7,8.7,19.23,8.7,14.47,0,25.73-10.62,25.73-24.17-.09-8.97-5.22-13.46-9.06-16.11Z"/>
    </g>
    <g>
      <path class="cls-1" d="m335.63,166.17c-1.83-.56-3.28-1.29-4.34-2.22l1.63-3.67c1.04.82,2.32,1.5,3.83,2.02,1.51.52,3.03.78,4.56.78,1.89,0,3.3-.3,4.23-.91.93-.6,1.4-1.4,1.4-2.4,0-.73-.26-1.33-.78-1.8-.52-.47-1.18-.84-1.98-1.11-.8-.27-1.89-.57-3.27-.91-1.94-.46-3.5-.92-4.7-1.38-1.2-.46-2.23-1.18-3.09-2.16-.86-.98-1.29-2.31-1.29-3.98,0-1.4.38-2.68,1.14-3.83.76-1.15,1.91-2.06,3.45-2.74,1.54-.68,3.42-1.02,5.65-1.02,1.55,0,3.07.19,4.58.58,1.5.39,2.8.94,3.89,1.67l-1.49,3.67c-1.11-.65-2.28-1.15-3.49-1.49-1.21-.34-2.39-.51-3.52-.51-1.86,0-3.25.31-4.16.94-.91.63-1.36,1.47-1.36,2.51,0,.73.26,1.32.78,1.78.52.46,1.18.82,1.98,1.09.8.27,1.89.57,3.27.91,1.89.44,3.44.89,4.65,1.36,1.21.47,2.25,1.19,3.11,2.16.86.97,1.29,2.28,1.29,3.92,0,1.4-.38,2.68-1.14,3.81-.76,1.14-1.92,2.05-3.47,2.72-1.55.68-3.44,1.02-5.67,1.02-1.96,0-3.86-.28-5.68-.84Z"/>
      <path class="cls-1" d="m430.89,160.76h-12.71l-2.51,5.88h-4.87l11.44-25.43h4.65l11.48,25.43h-4.94l-2.54-5.88Zm-1.56-3.7l-4.79-11.11-4.76,11.11h9.55Z"/>
      <path class="cls-1" d="m504.44,145.18v7.74h12.28v4h-12.28v9.73h-4.72v-25.43h18.56v3.96h-13.84Z"/>
      <path class="cls-1" d="m600.04,162.68v3.96h-19.07v-25.43h18.56v3.96h-13.84v6.61h12.28v3.89h-12.28v7.01h14.35Z"/>
    </g>
  </g>
</svg>