<?xml version="1.0" encoding="UTF-8"?>
<svg id="Layer_1" data-name="Layer 1" xmlns="http://www.w3.org/2000/svg" xmlns:xlink="http://www.w3.org/1999/xlink" viewBox="0 0 800 186.27">
  <defs>
    <style>
      .cls-1 {
        fill: #fff;
      }

      .cls-2 {
        fill: url(#linear-gradient);
      }
    </style>
    <linearGradient id="linear-gradient" x1="180.51" y1="182.56" x2="13.12" y2="15.17" gradientTransform="translate(0 186.5) scale(1 -1)" gradientUnits="userSpaceOnUse">
      <stop offset="0" stop-color="#fdbb2d"/>
      <stop offset="1" stop-color="#b21f1f"/>
    </linearGradient>
  </defs>
  <g>
    <path class="cls-1" d="m243.72,94.31h23.94c-.37,4.35-2.01,9.27-4.29,12.77-3.36,5.13-11.37,11.12-22.91,11.12-16.81,0-29.48-12.81-29.48-29.79s13.08-30.3,29.79-30.3c9.21,0,15.79,4.34,18.9,6.93.92.77,4.1,3.57,6.33,7.31l.48.81,4.89-3.91-.45-.63c-2.47-3.48-4.95-6.08-8.3-8.71-4.53-3.49-11.1-7.49-21.75-7.49-20.64,0-36.2,15.39-36.2,35.79s15.43,35.69,35.89,35.69c10.94,0,20.23-4.15,26.16-11.7,6.17-7.85,7.09-17.63,7.09-22.77v-.81h-30.1v5.7Z"/>
    <path class="cls-1" d="m276.57,122.78h6.64l9.05-22.27h27.78l9.05,22.27h6.64l-29.36-72.83-29.79,72.83Zm29.68-57.08l11.52,29.11h-23.22l11.7-29.11Z"/>
    <path class="cls-1" d="m383.93,96.55c0,6.81-.39,10.48-2.72,14.21-4.27,6.91-12.61,7.44-15.07,7.44s-10.79-.54-15.07-7.45c-2.33-3.73-2.72-7.4-2.72-14.21v-43.21h-6.1v43.21c0,7,.29,12.38,4.01,17.85,5.38,7.86,13.78,9.5,19.89,9.5s14.51-1.65,19.89-9.51c3.72-5.47,4-10.84,4-17.84v-43.21h-6.1v43.21Z"/>
    <path class="cls-1" d="m438.38,89.47c-2.86-2.02-5.62-3.34-10.18-5.52-1.05-.5-2.19-1.05-3.45-1.66l-.18-.09c-6.78-3.34-11.26-5.55-11.26-12.3,0-5.68,3.69-11.79,11.79-11.79,3.19,0,9.07,1.03,12.59,7.89l.47.91,4.54-3.83-.32-.58c-3.46-6.41-9.72-10.09-17.19-10.09-11.95,0-18.2,8.9-18.2,17.69,0,2.96.74,5.62,2.25,8.15,2.52,4.15,6.29,6.13,12.74,9.26,5.59,2.74,9.54,4.77,11.42,5.86,4.18,2.54,6.22,5.81,6.22,9.98,0,8.46-6.69,14.84-15.55,14.84-4.77,0-9.4-2.1-12.08-5.5-.93-1.12-2.63-3.7-3.52-6.25l-.3-.86-5.35,2.53.24.69c.63,1.79,1.78,4.52,4.52,7.68,2.74,3.18,7.41,7.4,16.38,7.4,12.31,0,21.96-9.07,21.96-20.64,0-7.67-4.32-11.54-7.57-13.78Z"/>
    <path class="cls-1" d="m487.49,89.47c-2.86-2.02-5.62-3.34-10.18-5.52-1.05-.5-2.19-1.05-3.45-1.66l-.18-.09c-6.78-3.34-11.26-5.55-11.26-12.3,0-5.68,3.69-11.79,11.79-11.79,3.19,0,9.07,1.03,12.59,7.89l.47.91,4.54-3.83-.32-.58c-3.46-6.41-9.72-10.09-17.19-10.09-11.95,0-18.2,8.9-18.2,17.69,0,2.96.74,5.62,2.25,8.15,2.52,4.15,6.29,6.13,12.74,9.26,5.59,2.74,9.54,4.77,11.42,5.86,4.18,2.54,6.22,5.81,6.22,9.98,0,8.46-6.69,14.84-15.55,14.84-4.77,0-9.4-2.1-12.08-5.5-.93-1.12-2.63-3.7-3.52-6.25l-.3-.86-5.35,2.53.24.69c.63,1.79,1.78,4.52,4.52,7.68,2.74,3.18,7.41,7.4,16.38,7.4,12.31,0,21.96-9.07,21.96-20.64,0-7.67-4.32-11.54-7.57-13.78Z"/>
    <path class="cls-1" d="m526.03,49.32l.2-.61-5.27-3.19-.33.94c-2.31,6.53-3.55,11.81-4.91,18.72-1.99,10.15-2.66,17.04-2.66,27.3s.67,17.05,2.66,27.3c1.36,6.91,2.6,12.19,4.91,18.72l.33.94,5.27-3.19-.19-.61c-2.02-6.46-3.42-12.54-4.55-19.72-1.35-8.1-2.12-16.65-2.12-23.45,0-8.98,1.33-18.55,2.13-23.46,1.04-6.59,2.21-12.47,4.55-19.7Z"/>
    <path class="cls-1" d="m570.4,89.47c-2.86-2.02-5.62-3.34-10.18-5.52-1.05-.5-2.19-1.05-3.45-1.66l-.18-.09c-6.78-3.34-11.26-5.55-11.26-12.3,0-5.68,3.69-11.79,11.79-11.79,3.19,0,9.07,1.03,12.59,7.89l.47.91,4.54-3.83-.32-.58c-3.46-6.41-9.72-10.09-17.19-10.09-11.95,0-18.2,8.9-18.2,17.69,0,2.96.74,5.62,2.25,8.15,2.52,4.15,6.29,6.13,12.74,9.26,5.59,2.74,9.54,4.77,11.42,5.86,4.18,2.54,6.22,5.81,6.22,9.98,0,8.46-6.69,14.84-15.55,14.84-4.77,0-9.4-2.1-12.08-5.5-.93-1.12-2.63-3.7-3.52-6.25l-.3-.86-5.35,2.53.24.69c.63,1.79,1.78,4.52,4.52,7.68,2.74,3.18,7.41,7.4,16.38,7.4,12.31,0,21.96-9.07,21.96-20.64,0-7.67-4.32-11.54-7.57-13.78Z"/>
    <path class="cls-1" d="m582.86,122.78h6.64l9.05-22.27h27.78l9.05,22.27h6.64l-29.36-72.83-29.79,72.83Zm29.68-57.08l11.52,29.11h-23.22l11.7-29.11Z"/>
    <polygon class="cls-1" points="650.56 122.78 656.67 122.78 656.67 87.7 679.03 87.7 679.03 82.01 656.67 82.01 656.67 59.03 679.64 59.03 679.64 53.33 650.56 53.33 650.56 122.78"/>
    <polygon class="cls-1" points="691.84 122.78 726.01 122.78 726.01 117.08 697.94 117.08 697.94 87.7 725.4 87.7 725.4 82.01 697.94 82.01 697.94 59.03 726.01 59.03 726.01 53.33 691.84 53.33 691.84 122.78"/>
    <path class="cls-1" d="m747.34,65.18h0c-1.36-6.91-2.6-12.19-4.91-18.72l-.33-.94-5.27,3.19.2.61c2.34,7.23,3.51,13.1,4.55,19.71.79,4.91,2.13,14.48,2.13,23.46,0,6.8-.77,15.35-2.13,23.46-1.13,7.18-2.53,13.25-4.55,19.71l-.19.61,5.27,3.19.33-.94c2.31-6.53,3.55-11.81,4.91-18.72,1.99-10.25,2.66-17.14,2.66-27.3s-.67-17.15-2.66-27.3Z"/>
  </g>
  <path class="cls-2" d="m148.82,35.58h0C133.77,4.38,96.24-8.79,65.05,6.17c-12.87,6.14-23.27,16.54-29.41,29.41h0C4.35,50.63-8.82,88.16,6.23,119.45c6.14,12.87,16.54,23.17,29.41,29.41,15.05,31.29,52.48,44.46,83.77,29.41,12.87-6.14,23.27-16.54,29.41-29.41,31.29-15.05,44.46-52.58,29.41-83.87-6.24-12.87-16.54-23.17-29.41-29.41Zm-1.98,27.23c0,7.23-1.49,14.46-4.26,21.19-6.04-8.12-14.06-14.66-23.17-19.01-4.36-9.11-10.89-17.03-19.01-23.07,13.47-5.64,28.72-5.64,42.28,0,2.67,6.54,4.16,13.67,4.16,20.89h0Zm0,58.82c0,7.23-1.39,14.36-4.26,20.99-13.47,5.64-28.72,5.64-42.18,0,8.12-6.04,14.66-13.96,19.01-23.07h0c9.11-4.36,17.03-10.89,23.07-19.01,2.87,6.63,4.26,13.76,4.36,21.09h0Zm-109.32,0c0-7.23,1.49-14.46,4.26-21.19,6.04,8.12,14.06,14.66,23.17,19.01,4.36,9.11,10.89,17.03,19.01,23.07-13.47,5.64-28.72,5.64-42.18,0-2.77-6.63-4.26-13.76-4.26-20.89h0Zm0-58.82c0-7.23,1.39-14.36,4.26-20.99,6.63-2.77,13.76-4.26,20.99-4.26s14.46,1.49,21.19,4.26c-8.12,6.04-14.66,13.96-19.01,23.07h0c-9.11,4.36-17.03,10.89-23.07,19.01-2.87-6.63-4.36-13.86-4.36-21.09h0Zm88.03,25.35h-33.37v8.12h25.15c-.4,5.84-1.78,11.49-4.06,16.93-13.47,5.64-28.62,5.64-42.08,0-5.64-13.47-5.64-28.62,0-42.08,13.47-5.64,28.62-5.64,42.08,0,3.76,1.58,7.33,3.56,10.6,5.94,5.74,4.06,10.6,9.21,14.36,15.15-3.76,5.94-8.71,11.09-14.36,15.15,1.29-4.95,1.88-10,1.88-15.15,0-1.39-.2-2.77-.2-4.06h0Zm-65.06,19.11c-5.74-4.06-10.6-9.21-14.36-15.15,3.76-5.94,8.61-11.09,14.36-15.15-2.38,10-2.38,20.4,0,30.3h0Zm31.69-48.52c-5.15,0-10.2.69-15.15,1.88,4.06-5.74,9.21-10.6,15.05-14.36,5.94,3.76,11.09,8.61,15.15,14.36-4.85-1.29-9.9-1.88-15.05-1.88h0Zm-15.15,65.06c9.9,2.48,20.3,2.48,30.3,0-4.06,5.74-9.21,10.6-15.15,14.36-5.94-3.76-11.09-8.61-15.15-14.36h0Zm15.15-115.66c17.72,0,34.26,8.52,44.46,22.97-15.05-3.76-30.89-1.78-44.46,5.45-13.67-7.23-29.51-9.21-44.46-5.55,10.2-14.26,26.74-22.87,44.46-22.87h0ZM8.21,92.12c0-17.72,8.61-34.26,22.97-44.46-3.76,15.05-1.78,30.89,5.45,44.46-4.85,9.01-7.33,19.11-7.33,29.41,0,5.15.59,10.2,1.88,15.15-14.46-10.2-22.97-26.84-22.97-44.56Zm83.97,84.07c-17.72,0-34.26-8.52-44.46-22.97,15.05,3.66,30.89,1.78,44.46-5.45,9.01,4.85,19.11,7.33,29.41,7.33,5.15,0,10.2-.59,15.15-1.88-10.3,14.36-26.84,22.97-44.56,22.97Zm61-39.51c1.19-4.95,1.88-10,1.78-15.15,0-10.2-2.48-20.3-7.33-29.41,4.85-9.01,7.33-19.11,7.33-29.41,0-5.15-.59-10.2-1.78-15.15,24.56,17.43,30.4,51.49,12.97,76.05-3.56,5.15-7.92,9.51-12.97,13.07h0Z"/>
</svg>